<?xml version="1.0" standalone="no"?>
<!DOCTYPE svg PUBLIC "-//W3C//DTD SVG 20010904//EN"
 "http://www.w3.org/TR/2001/REC-SVG-20010904/DTD/svg10.dtd">
<svg version="1.0" xmlns="http://www.w3.org/2000/svg"
 width="50.000000pt" height="50.000000pt" viewBox="0 0 50.000000 50.000000"
 preserveAspectRatio="xMidYMid meet">

<g transform="translate(0.000000,50.000000) scale(0.100000,-0.100000)"
fill="#000000" stroke="none">
<path d="M130 395 l0 -65 -65 0 -65 0 0 -30 0 -30 65 0 65 0 0 -125 0 -125 30
0 30 0 0 125 0 125 135 0 135 0 0 30 0 30 -135 0 -135 0 0 65 0 65 -30 0 -30
0 0 -65z M230 165 l0 -65 60 0 60 0 0 65 0 65 -60 0 -60 0 0 -65z"/>
</g>
</svg>
